<svg width="24" height="24" viewBox="0 0 24 24" fill="none" xmlns="http://www.w3.org/2000/svg">
<path d="M3.47555 2.55626L4.02554 4.41826H18.6795C20.5195 4.41826 21.9245 6.13526 21.3945 7.92826L19.7395 13.5283C19.3875 14.7223 18.2685 15.5183 17.0245 15.5183H7.86855C6.62455 15.5183 5.50654 14.7223 5.15354 13.5283L2.03654 2.98126C2.00567 2.886 1.99418 2.78553 2.00276 2.68576C2.01133 2.58599 2.0398 2.48894 2.08649 2.40035C2.13317 2.31176 2.19712 2.23342 2.27457 2.16994C2.35202 2.10646 2.4414 2.05914 2.53743 2.03076C2.63346 2.00237 2.7342 1.99351 2.83371 2.00469C2.93323 2.01586 3.02949 2.04686 3.11684 2.09584C3.20418 2.14481 3.28083 2.21079 3.34226 2.28987C3.4037 2.36894 3.44968 2.45952 3.47555 2.55626ZM14.8465 8.70726C14.9596 8.54587 15.0046 8.34646 14.9718 8.15215C14.939 7.95784 14.8311 7.78425 14.6713 7.66889C14.5115 7.55354 14.3128 7.50569 14.1181 7.5357C13.9233 7.56571 13.7482 7.67117 13.6305 7.82926L11.9175 10.2003L11.3185 9.51626C11.2545 9.4393 11.1758 9.37592 11.0869 9.32988C10.998 9.28383 10.9008 9.25605 10.801 9.24816C10.7012 9.24028 10.6008 9.25245 10.5058 9.28396C10.4108 9.31547 10.323 9.36569 10.2477 9.43165C10.1724 9.4976 10.1111 9.57797 10.0673 9.66801C10.0236 9.75804 9.9983 9.85593 9.99297 9.95589C9.98764 10.0559 10.0024 10.1559 10.0363 10.2501C10.0702 10.3442 10.1227 10.4307 10.1905 10.5043L11.2245 11.6853C11.3209 11.7955 11.4409 11.8825 11.5756 11.9399C11.7103 11.9974 11.8562 12.0237 12.0024 12.017C12.1487 12.0102 12.2915 11.9706 12.4203 11.9011C12.5492 11.8315 12.6607 11.7338 12.7465 11.6153L14.8465 8.70726ZM8.25555 17.0183C7.65881 17.0183 7.08651 17.2553 6.66456 17.6773C6.2426 18.0992 6.00555 18.6715 6.00555 19.2683C6.00555 19.865 6.2426 20.4373 6.66456 20.8593C7.08651 21.2812 7.65881 21.5183 8.25555 21.5183C8.85228 21.5183 9.42458 21.2812 9.84654 20.8593C10.2685 20.4373 10.5055 19.865 10.5055 19.2683C10.5055 18.6715 10.2685 18.0992 9.84654 17.6773C9.42458 17.2553 8.85228 17.0183 8.25555 17.0183ZM16.2555 17.0183C15.6588 17.0183 15.0865 17.2553 14.6646 17.6773C14.2426 18.0992 14.0055 18.6715 14.0055 19.2683C14.0055 19.865 14.2426 20.4373 14.6646 20.8593C15.0865 21.2812 15.6588 21.5183 16.2555 21.5183C16.8523 21.5183 17.4246 21.2812 17.8465 20.8593C18.2685 20.4373 18.5055 19.865 18.5055 19.2683C18.5055 18.6715 18.2685 18.0992 17.8465 17.6773C17.4246 17.2553 16.8523 17.0183 16.2555 17.0183Z" fill="#F8FAFC"/>
</svg>
