<svg width="91" height="24" viewBox="0 0 91 24" fill="none" xmlns="http://www.w3.org/2000/svg">
<circle cx="12" cy="12" r="9" stroke="#F8FAFC" stroke-width="6"/>
<path d="M38.2443 18.1591C37.1761 18.1591 36.2367 17.9186 35.4261 17.4375C34.6193 16.9527 33.9886 16.2652 33.5341 15.375C33.0795 14.4811 32.8523 13.4205 32.8523 12.1932C32.8523 11.2538 32.9886 10.4148 33.2614 9.67614C33.5341 8.9375 33.9148 8.31061 34.4034 7.79545C34.892 7.27651 35.4621 6.88258 36.1136 6.61364C36.7652 6.34091 37.4716 6.20455 38.233 6.20455C38.8769 6.20455 39.4792 6.29924 40.0398 6.48864C40.6042 6.67424 41.108 6.93939 41.5511 7.28409C41.9943 7.62879 42.358 8.03788 42.642 8.51136C42.9299 8.98485 43.1174 9.50758 43.2045 10.0795H41.0568C40.9697 9.77273 40.8409 9.49621 40.6705 9.25C40.5 9.00379 40.2936 8.79545 40.0511 8.625C39.8087 8.45076 39.536 8.32008 39.233 8.23295C38.9337 8.14205 38.6098 8.09659 38.2614 8.09659C37.6326 8.09659 37.0701 8.25379 36.5739 8.56818C36.0777 8.88258 35.6856 9.3447 35.3977 9.95455C35.1136 10.5606 34.9716 11.2992 34.9716 12.1705C34.9716 13.0492 35.1098 13.7936 35.3864 14.4034C35.6667 15.0133 36.053 15.4773 36.5455 15.7955C37.0379 16.1098 37.608 16.267 38.2557 16.267C38.8617 16.267 39.3864 16.1477 39.8295 15.9091C40.2727 15.6705 40.6136 15.339 40.8523 14.9148C41.0947 14.4905 41.2159 14.0019 41.2159 13.4489L41.5909 13.5568H38.4659V11.9091H43.2898V18H41.7784L41.625 16.6364H41.5625C41.1534 17.125 40.6818 17.5019 40.1477 17.767C39.6136 18.0284 38.9792 18.1591 38.2443 18.1591ZM46.8295 18H44.5795L48.6761 6.36364H51.2784L55.3807 18H53.1307L50.0227 8.75H49.9318L46.8295 18ZM46.9034 13.4375H53.0398V15.1307H46.9034V13.4375ZM56.9134 6.36364H59.4929L62.9474 14.7955H63.0838L66.5384 6.36364H69.1179V18H67.0952V10.0057H66.9872L63.7713 17.9659H62.2599L59.044 9.98864H58.9361V18H56.9134V6.36364ZM71.4134 18V6.36364H78.9815V8.13068H73.5213V11.2898H78.5895V13.0568H73.5213V16.233H79.027V18H71.4134ZM87.456 9.5625C87.4029 9.06629 87.1795 8.67992 86.7855 8.40341C86.3954 8.12689 85.8878 7.98864 85.2628 7.98864C84.8234 7.98864 84.4465 8.05492 84.1321 8.1875C83.8177 8.32008 83.5772 8.5 83.4105 8.72727C83.2438 8.95455 83.1586 9.21402 83.1548 9.50568C83.1548 9.74811 83.2098 9.95833 83.3196 10.1364C83.4332 10.3144 83.5866 10.4659 83.7798 10.5909C83.973 10.7121 84.187 10.8144 84.4219 10.8977C84.6567 10.9811 84.8935 11.0511 85.1321 11.108L86.223 11.3807C86.6624 11.483 87.0848 11.6212 87.4901 11.7955C87.8991 11.9697 88.2647 12.1894 88.5866 12.4545C88.9124 12.7197 89.17 13.0398 89.3594 13.4148C89.5488 13.7898 89.6435 14.2292 89.6435 14.733C89.6435 15.4148 89.4692 16.0152 89.1207 16.5341C88.7723 17.0492 88.2685 17.4527 87.6094 17.7443C86.9541 18.0322 86.1605 18.1761 85.2287 18.1761C84.3234 18.1761 83.5374 18.036 82.8707 17.7557C82.2079 17.4754 81.6889 17.0663 81.3139 16.5284C80.9427 15.9905 80.742 15.3352 80.7116 14.5625H82.7855C82.8158 14.9678 82.9408 15.3049 83.1605 15.5739C83.3802 15.8428 83.6662 16.0436 84.0185 16.1761C84.3745 16.3087 84.7723 16.375 85.2116 16.375C85.67 16.375 86.0715 16.3068 86.4162 16.1705C86.7647 16.0303 87.0374 15.8371 87.2344 15.5909C87.4313 15.3409 87.5317 15.0492 87.5355 14.7159C87.5317 14.4129 87.4427 14.1629 87.2685 13.9659C87.0942 13.7652 86.8499 13.5985 86.5355 13.4659C86.2249 13.3295 85.8613 13.2083 85.4446 13.1023L84.1207 12.7614C83.1624 12.5152 82.4048 12.142 81.848 11.642C81.295 11.1383 81.0185 10.4697 81.0185 9.63636C81.0185 8.95076 81.2041 8.35038 81.5753 7.83523C81.9503 7.32008 82.4598 6.92045 83.1037 6.63636C83.7476 6.34848 84.4768 6.20455 85.2912 6.20455C86.117 6.20455 86.8404 6.34848 87.4616 6.63636C88.0866 6.92045 88.5772 7.31629 88.9332 7.82386C89.2893 8.32765 89.473 8.9072 89.4844 9.5625H87.456Z" fill="#F8FAFC"/>
</svg>
