<svg width="16" height="16" viewBox="0 0 16 16" fill="none" xmlns="http://www.w3.org/2000/svg">
<path d="M12.0206 11.0778L14.8757 13.933L13.9329 14.8758L11.0778 12.0206C10.0512 12.842 8.74925 13.3333 7.33325 13.3333C4.02125 13.3333 1.33325 10.6453 1.33325 7.33331C1.33325 4.02131 4.02125 1.33331 7.33325 1.33331C10.6453 1.33331 13.3333 4.02131 13.3333 7.33331C13.3333 8.74931 12.8419 10.0512 12.0206 11.0778ZM10.6831 10.5832C11.4983 9.74305 11.9999 8.59705 11.9999 7.33331C11.9999 4.75498 9.91158 2.66665 7.33325 2.66665C4.75492 2.66665 2.66659 4.75498 2.66659 7.33331C2.66659 9.91165 4.75492 12 7.33325 12C8.59698 12 9.74298 11.4983 10.5831 10.6831L10.6831 10.5832Z" fill="#F8FAFC"/>
</svg>
