<svg width="24" height="24" viewBox="0 0 24 24" fill="none" xmlns="http://www.w3.org/2000/svg">
<path d="M13.4699 7.53001C13.6105 7.67046 13.8012 7.74935 13.9999 7.74935C14.1987 7.74935 14.3893 7.67046 14.5299 7.53001L15.2499 6.81001V17C15.2499 17.1989 15.3289 17.3897 15.4696 17.5303C15.6102 17.671 15.801 17.75 15.9999 17.75C16.1988 17.75 16.3896 17.671 16.5302 17.5303C16.6709 17.3897 16.7499 17.1989 16.7499 17V6.81001L17.4699 7.53001C17.5386 7.6037 17.6214 7.6628 17.7134 7.70379C17.8054 7.74478 17.9047 7.76683 18.0054 7.7686C18.1061 7.77038 18.2061 7.75186 18.2995 7.71413C18.3929 7.67641 18.4777 7.62027 18.5489 7.54905C18.6202 7.47783 18.6763 7.393 18.714 7.29961C18.7518 7.20622 18.7703 7.10619 18.7685 7.00549C18.7667 6.90479 18.7447 6.80547 18.7037 6.71347C18.6627 6.62147 18.6036 6.53867 18.5299 6.47001L16.5299 4.47001C16.3893 4.32956 16.1987 4.25067 15.9999 4.25067C15.8012 4.25067 15.6105 4.32956 15.4699 4.47001L13.4699 6.47001C13.3295 6.61064 13.2506 6.80126 13.2506 7.00001C13.2506 7.19876 13.3295 7.38939 13.4699 7.53001ZM8.74991 17.19L9.46991 16.47C9.53857 16.3963 9.62137 16.3372 9.71337 16.2962C9.80537 16.2552 9.90468 16.2332 10.0054 16.2314C10.1061 16.2296 10.2061 16.2482 10.2995 16.2859C10.3929 16.3236 10.4777 16.3798 10.5489 16.451C10.6202 16.5222 10.6763 16.607 10.714 16.7004C10.7518 16.7938 10.7703 16.8938 10.7685 16.9945C10.7667 17.0952 10.7447 17.1946 10.7037 17.2866C10.6627 17.3785 10.6036 17.4614 10.5299 17.53L8.52991 19.53C8.38928 19.6705 8.19866 19.7494 7.99991 19.7494C7.80116 19.7494 7.61053 19.6705 7.46991 19.53L5.46991 17.53C5.39622 17.4614 5.33712 17.3785 5.29613 17.2866C5.25514 17.1946 5.23309 17.0952 5.23132 16.9945C5.22954 16.8938 5.24807 16.7938 5.28579 16.7004C5.32351 16.607 5.37965 16.5222 5.45087 16.451C5.52209 16.3798 5.60692 16.3236 5.70031 16.2859C5.7937 16.2482 5.89373 16.2296 5.99443 16.2314C6.09513 16.2332 6.19445 16.2552 6.28645 16.2962C6.37845 16.3372 6.46125 16.3963 6.52991 16.47L7.24991 17.19V7.00001C7.24991 6.8011 7.32893 6.61033 7.46958 6.46968C7.61023 6.32903 7.801 6.25001 7.99991 6.25001C8.19882 6.25001 8.38959 6.32903 8.53024 6.46968C8.67089 6.61033 8.74991 6.8011 8.74991 7.00001V17.19Z" fill="#F8FAFC"/>
</svg>
